<?xml version="1.0" standalone="no"?>
<!DOCTYPE svg PUBLIC "-//W3C//DTD SVG 20010904//EN"
 "http://www.w3.org/TR/2001/REC-SVG-20010904/DTD/svg10.dtd">
<svg version="1.0" xmlns="http://www.w3.org/2000/svg"
 width="1280.000000pt" height="1278.000000pt" viewBox="0 0 1280.000000 1278.000000"
 preserveAspectRatio="xMidYMid meet">
<metadata>
Created by potrace 1.15, written by Peter Selinger 2001-2017
</metadata>
<g transform="translate(0.000000,1278.000000) scale(0.100000,-0.100000)"
fill="#ffffff" stroke="none">
<path d="M407 12769 c-70 -16 -141 -52 -212 -105 -83 -62 -125 -117 -163 -211
l-27 -68 -3 -5965 c-1 -4156 1 -5981 8 -6016 37 -177 172 -325 347 -381 l74
-23 5957 0 c5793 0 5959 1 6023 19 77 22 117 41 180 87 26 19 52 34 58 34 14
0 65 70 97 132 58 115 54 -360 52 6140 l-3 5963 -23 56 c-31 76 -90 167 -143
218 -48 46 -158 104 -229 120 -57 13 -11937 13 -11993 0z m11329 -725 c146
-50 287 -198 328 -344 13 -49 15 -631 17 -5320 l2 -5265 -21 -65 c-24 -70 -87
-169 -118 -185 -11 -5 -38 -24 -59 -41 -56 -43 -106 -70 -167 -91 -50 -17
-156 -18 -1923 -20 -1028 -2 -3411 1 -5295 5 l-3425 7 -66 32 c-124 61 -232
182 -270 301 l-20 67 1 5265 c0 2896 5 5281 9 5300 13 55 38 108 76 160 41 56
158 149 230 182 l50 23 4565 5 c6408 8 6012 9 6086 -16z"/>
<path d="M6055 11805 c-110 -35 -506 -158 -880 -275 -374 -117 -822 -256 -995
-310 -173 -54 -792 -247 -1375 -428 -583 -182 -1270 -396 -1527 -476 -258 -80
-470 -146 -473 -146 -3 0 -5 -175 -5 -390 l0 -389 41 14 c23 8 45 15 50 15 4
0 7 -34 6 -75 -1 -41 -1 -75 1 -75 2 0 1231 383 2732 850 1500 468 2735 850
2743 850 7 0 128 -36 268 -79 296 -93 5166 -1609 5192 -1617 16 -5 17 16 15
382 l-3 387 -47 14 -48 14 0 47 0 48 -1697 528 c-934 291 -1954 609 -2268 707
-313 97 -775 241 -1025 320 -250 78 -466 143 -480 145 -14 2 -115 -26 -225
-61z"/>
<path d="M2701 9089 c-207 -22 -397 -76 -588 -169 -513 -247 -868 -705 -984
-1270 -21 -101 -24 -142 -24 -340 0 -195 3 -240 23 -338 45 -222 117 -404 250
-629 220 -370 457 -598 797 -763 151 -74 264 -113 424 -147 116 -25 144 -28
356 -28 201 0 244 3 343 23 564 114 1028 473 1272 985 173 363 220 747 139
1138 -43 208 -118 389 -258 622 -128 214 -235 347 -384 477 -377 330 -875 490
-1366 439z"/>
<path d="M6425 7529 c-361 -17 -543 -29 -595 -40 -84 -17 -209 -80 -258 -130
-24 -24 -90 -113 -147 -199 -321 -481 -590 -1067 -955 -2080 -48 -135 -95
-270 -104 -300 -16 -55 -44 -313 -68 -610 -19 -239 -16 -644 5 -760 39 -212
91 -330 262 -597 80 -124 214 -247 340 -310 55 -28 189 -69 253 -78 l52 -7 0
-226 c1 -306 14 -531 33 -568 8 -16 29 -42 46 -58 17 -17 31 -39 31 -51 0 -27
36 -82 70 -106 41 -30 137 -49 305 -58 248 -14 357 5 390 69 21 41 33 222 41
668 l7 342 1626 -2 1626 -3 7 -175 c13 -315 38 -649 50 -675 6 -14 26 -35 45
-46 25 -16 33 -27 33 -50 0 -112 107 -146 403 -128 241 14 312 35 353 104 22
38 26 60 35 212 6 93 9 298 7 456 l-3 285 70 7 c351 33 604 221 758 562 115
254 131 586 66 1308 -29 325 -28 320 -167 700 -343 937 -574 1446 -895 1970
-213 348 -280 429 -402 486 -126 58 -131 59 -745 89 -234 11 -2332 11 -2575
-1z"/>
</g>
</svg>
