<?xml version="1.0" standalone="no"?>
<!DOCTYPE svg PUBLIC "-//W3C//DTD SVG 20010904//EN"
 "http://www.w3.org/TR/2001/REC-SVG-20010904/DTD/svg10.dtd">
<svg version="1.0" xmlns="http://www.w3.org/2000/svg"
 width="100.000000pt" height="100.000000pt" viewBox="0 0 100.000000 100.000000"
 preserveAspectRatio="xMidYMid meet">

<g transform="translate(0.000000,100.000000) scale(0.100000,-0.100000)"
fill="#000000" stroke="none">
<path d="M579 874 c-84 -26 -159 -128 -159 -217 0 -19 -1 -19 -18 -4 -30 28
-101 41 -149 28 -48 -13 -126 -69 -131 -93 -3 -15 1 -16 30 -7 18 5 67 9 108
8 l75 -1 -55 -15 c-56 -15 -102 -49 -125 -93 -15 -29 -31 -120 -20 -120 4 0
32 20 63 44 57 45 154 96 182 96 10 0 -4 -21 -35 -54 -29 -30 -68 -86 -89
-125 -42 -80 -79 -181 -67 -181 5 0 12 12 16 27 13 54 76 178 117 230 78 101
174 154 109 60 -54 -79 -100 -195 -117 -292 -11 -65 4 -35 26 51 21 85 74 200
113 249 l24 29 16 -30 c21 -41 37 -135 37 -222 0 -64 2 -73 17 -70 29 5 81 84
89 134 5 37 2 58 -15 97 l-21 51 34 -33 c19 -19 45 -58 58 -87 13 -30 26 -54
30 -54 10 0 19 54 19 114 0 51 3 56 35 78 80 54 117 157 90 251 -21 72 -79
131 -149 152 -61 18 -78 18 -138 -1z m185 -34 c60 -41 90 -93 94 -165 4 -54 0
-70 -22 -112 -15 -26 -42 -59 -61 -71 l-34 -24 -35 36 c-21 20 -54 40 -78 47
-39 10 -59 9 -128 -6 -22 -5 -27 -1 -42 37 -35 84 -19 165 43 227 48 49 84 62
160 58 51 -2 75 -8 103 -27z m-396 -184 c15 -8 37 -25 49 -38 22 -23 50 -83
36 -76 -100 51 -108 53 -205 53 -54 0 -98 2 -98 3 0 8 47 44 75 57 39 18 109
19 143 1z m30 -112 l37 -16 -52 -14 c-72 -18 -145 -57 -195 -102 l-41 -37 6
44 c15 113 133 173 245 125z m262 -22 c43 -23 70 -73 70 -129 0 -74 -10 -80
-41 -25 -33 59 -87 108 -147 135 -33 14 -41 21 -31 28 25 15 112 10 149 -9z
m-102 -59 c71 -53 84 -146 30 -229 l-32 -49 -7 30 c-4 17 -7 55 -8 85 -1 49
-10 93 -37 179 -8 27 -3 25 54 -16z"/>
<path d="M592 325 c0 -16 2 -22 5 -12 2 9 2 23 0 30 -3 6 -5 -1 -5 -18z"/>
</g>
</svg>
