<?xml version="1.0" standalone="no"?>
<!DOCTYPE svg PUBLIC "-//W3C//DTD SVG 20010904//EN"
 "http://www.w3.org/TR/2001/REC-SVG-20010904/DTD/svg10.dtd">
<svg version="1.0" xmlns="http://www.w3.org/2000/svg"
 width="100.000000pt" height="100.000000pt" viewBox="0 0 100.000000 100.000000"
 preserveAspectRatio="xMidYMid meet">

<g transform="translate(0.000000,100.000000) scale(0.100000,-0.100000)"
fill="#000000" stroke="none">
<path d="M579 877 c-84 -31 -141 -100 -155 -184 -3 -24 -7 -43 -8 -43 -1 0
-19 9 -41 20 -52 26 -99 25 -160 -4 -50 -23 -114 -81 -103 -92 3 -3 23 -1 45
5 21 6 67 10 103 10 62 -1 63 -1 26 -10 -63 -15 -102 -45 -130 -101 -24 -47
-36 -128 -20 -128 4 0 29 21 56 46 44 41 114 81 178 99 20 7 16 -2 -28 -49
-28 -32 -67 -85 -86 -119 -37 -66 -81 -186 -71 -195 7 -8 9 -4 34 68 13 36 40
94 61 130 39 67 153 186 169 176 5 -3 -10 -35 -34 -71 -43 -65 -88 -185 -101
-265 -5 -31 -4 -41 4 -36 7 4 12 16 12 28 0 30 58 197 82 238 12 19 32 48 45
63 l23 29 15 -35 c19 -47 35 -148 35 -229 0 -38 4 -68 8 -68 16 0 71 66 86
102 20 47 20 98 1 146 l-15 37 35 -40 c20 -21 43 -61 53 -87 9 -26 20 -48 24
-48 12 0 30 111 24 145 -6 29 -3 34 33 58 22 15 53 48 68 74 23 40 28 60 28
114 0 56 -5 73 -30 115 -56 90 -175 135 -266 101z m149 -23 c109 -45 161 -173
113 -279 -17 -38 -81 -105 -100 -105 -5 0 -16 12 -26 26 -25 39 -98 67 -154
61 -25 -3 -56 -9 -68 -12 -18 -6 -23 -3 -23 12 0 11 -7 28 -15 39 -19 25 -19
95 1 142 44 107 168 160 272 116z m-364 -198 c33 -14 86 -72 86 -94 0 -16 1
-16 -66 15 -50 23 -72 27 -142 27 -70 -1 -80 1 -70 13 38 47 130 65 192 39z
m41 -116 l30 -12 -58 -14 c-69 -16 -106 -34 -174 -85 -58 -43 -65 -37 -38 28
20 47 42 72 80 90 34 15 115 12 160 -7z m239 -14 c63 -26 96 -96 81 -173 l-7
-38 -13 32 c-21 50 -99 127 -155 153 -42 19 -48 26 -33 31 30 12 92 10 127 -5z
m-93 -60 c81 -55 92 -186 22 -248 -19 -17 -20 -16 -31 91 -6 60 -18 126 -26
145 -18 42 -13 44 35 12z"/>
<path d="M670 784 c0 -1 6 -7 14 -13 10 -8 16 -8 24 1 8 10 4 13 -14 13 -13 0
-24 -1 -24 -1z"/>
<path d="M563 715 c1 0 9 -6 17 -12 11 -9 19 -8 32 1 14 10 12 12 -17 12 -19
0 -33 0 -32 -1z"/>
<path d="M720 656 c0 -2 8 -10 18 -17 15 -13 16 -12 3 4 -13 16 -21 21 -21 13z"/>
<path d="M258 643 c7 -3 16 -2 19 1 4 3 -2 6 -13 5 -11 0 -14 -3 -6 -6z"/>
<path d="M318 643 c7 -3 16 -2 19 1 4 3 -2 6 -13 5 -11 0 -14 -3 -6 -6z"/>
<path d="M592 320 c0 -19 2 -27 5 -17 2 9 2 25 0 35 -3 9 -5 1 -5 -18z"/>
</g>
</svg>
